<svg width="1650" height="934" viewBox="0 0 1650 934" fill="none" xmlns="http://www.w3.org/2000/svg">
<path d="M-459 438.256L57.8057 92.0128M-459 438.256L-405.287 752.628M-459 438.256L-159.949 493.308M57.8057 92.0128L393.149 5.08973M57.8057 92.0128L-159.949 493.308M57.8057 92.0128L223.3 951.103M393.149 5.08973L777.85 21.0256M393.149 5.08973L223.3 951.103M393.149 5.08973L555.739 383.205M777.85 21.0256L1222.07 -63M777.85 21.0256L555.739 383.205M777.85 21.0256L888.141 360.547M777.85 21.0256L976.733 196.321M777.85 21.0256L1375.95 277.449M1222.07 -63L1828.88 -52.859M1222.07 -63L1375.95 277.449M1222.07 -63L1643.18 82.5661M1828.88 -52.859L2186 329.603M1828.88 -52.859L1730.17 303.526M1828.88 -52.859L1643.18 82.5661M2186 329.603L2141 629.487M2186 329.603L1845.74 526.33M2186 329.603L1730.17 303.526M2095.99 929.372L1539.99 1067M2095.99 929.372L1845.74 775.262M2095.99 929.372L2141 629.487M1539.99 1067L1165.45 701.923M1539.99 1067L1454.34 383.205M1539.99 1067L1637.26 646.872M1539.99 1067L1532.68 1065.9M912.858 972.833L223.3 951.103M912.858 972.833L908.461 968.742M912.858 972.833L1532.68 1065.9M223.3 951.103L216.284 948.887M-405.287 752.628L139.101 548.359L-159.949 493.308M-405.287 752.628L216.284 948.887M555.739 383.205L456.634 548.359M216.284 948.887L456.634 548.359M456.634 548.359H949.15L888.141 360.547M456.634 548.359L888.141 360.547M456.634 548.359L908.461 968.742M908.461 968.742L976.733 196.321M908.461 968.742L1165.45 701.923M976.733 196.321L1165.45 701.923M976.733 196.321L1286.69 457.443M1375.95 277.449L1286.69 457.443M1375.95 277.449L1454.34 383.205M1375.95 277.449L1637.26 646.872M1375.95 277.449L1643.18 82.5661M1165.45 701.923L1286.69 457.443M1165.45 701.923L1454.34 383.205M1637.26 646.872L1845.74 775.262M1637.26 646.872L1845.74 526.33M1637.26 646.872L1643.18 82.5661M1637.26 646.872L1730.17 303.526M1532.68 1065.9L1845.74 775.262M1845.74 775.262L2141 629.487M1845.74 775.262V526.33M2141 629.487L1845.74 526.33M1730.17 303.526L1643.18 82.5661" stroke="white" stroke-opacity="0.08"/>
</svg>
