<svg width="32" height="32" viewBox="0 0 32 32" fill="none" xmlns="http://www.w3.org/2000/svg">
<circle cx="16" cy="16" r="16" fill="#88DB05"/>
<path d="M23.5901 10.69C22.5933 10.4708 21.6915 9.94144 21.0142 9.17789C20.3369 8.41435 19.9189 7.45587 19.8201 6.44V6H16.3701V19.67C16.3708 20.2766 16.1807 20.868 15.8266 21.3604C15.4725 21.8529 14.9724 22.2215 14.3972 22.414C13.822 22.6065 13.2008 22.6131 12.6216 22.4329C12.0424 22.2527 11.5346 21.8948 11.1701 21.41C10.8436 20.9808 10.6436 20.4689 10.5929 19.932C10.5421 19.3951 10.6426 18.8548 10.8829 18.372C11.1233 17.8892 11.4939 17.4834 11.9529 17.2003C12.4118 16.9172 12.9409 16.7681 13.4801 16.77C13.7784 16.7683 14.0751 16.8121 14.3601 16.9V13.4C14.0285 13.3589 13.6943 13.3422 13.3601 13.35C12.1295 13.3829 10.9351 13.7739 9.92323 14.4753C8.91139 15.1766 8.12604 16.1578 7.66332 17.2986C7.20061 18.4395 7.08062 19.6905 7.31806 20.8986C7.5555 22.1066 8.14006 23.2191 9.00015 24.1C9.88163 24.9962 11.0096 25.6101 12.2408 25.8638C13.472 26.1175 14.7509 25.9994 15.9148 25.5246C17.0787 25.0498 18.0753 24.2397 18.7778 23.1973C19.4803 22.1548 19.857 20.9271 19.8601 19.67V12.67C21.2516 13.6639 22.9202 14.1956 24.6301 14.19V10.79C24.2942 10.7914 23.9591 10.7579 23.6301 10.69H23.5901Z" fill="#0C0C0C"/>
</svg>
