<svg width="1374" height="618" viewBox="0 0 1374 618" fill="none" xmlns="http://www.w3.org/2000/svg">
<path opacity="0.4" d="M1.38184 387.2L251.042 177.17M1.38184 387.2L47.1675 548.359M1.38184 387.2L160.31 399.061M251.042 177.17L420.841 112.829M251.042 177.17L160.31 399.061M251.042 177.17L385.911 616.514M420.841 112.829L622.179 99.4232M420.841 112.829L385.911 616.514M420.841 112.829L526.963 301.131M622.179 99.4232L848.869 30.4464M622.179 99.4232L526.963 301.131M622.179 99.4232L698.867 270.522M622.179 99.4232L735.727 179.744M622.179 99.4232L948.32 199.567M848.869 30.4464L1165.6 1.46793M848.869 30.4464L948.32 199.567M848.869 30.4464L1076.52 82.6879M1165.6 1.46793L1373.32 181.052M1165.6 1.46793L1134.35 193.179M1165.6 1.46793L1076.52 82.6879M1373.32 181.052L1366.86 340.22M1373.32 181.052L1207.18 303.019M1373.32 181.052L1134.35 193.179M1360.39 499.388L1078.49 602.674M1360.39 499.388L1221.28 433.033M1360.39 499.388L1366.86 340.22M1078.49 602.674L862.682 433.154M1078.49 602.674L995.152 250.374M1078.49 602.674L1105.38 377.753M1078.49 602.674L1074.62 602.514M746.414 588.915L385.911 616.514M746.414 588.915L743.891 587.027M746.414 588.915L1074.62 602.514M385.911 616.514L382.13 615.754M47.1675 548.359L319.238 410.922L160.31 399.061M47.1675 548.359L382.13 615.754M526.963 301.131L484.678 392.987M382.13 615.754L484.678 392.987M484.678 392.987L741.289 365.167L698.867 270.522M484.678 392.987L698.867 270.522M484.678 392.987L743.891 587.027M743.891 587.027L735.727 179.744M743.891 587.027L862.682 433.154M735.727 179.744L862.682 433.154M735.727 179.744L912.006 298.618M948.32 199.567L912.006 298.618M948.32 199.567L995.152 250.374M948.32 199.567L1105.38 377.753M948.32 199.567L1076.52 82.6879M862.682 433.154L912.006 298.618M862.682 433.154L995.152 250.374M1105.38 377.753L1221.28 433.033M1105.38 377.753L1207.18 303.019M1105.38 377.753L1076.52 82.6879M1105.38 377.753L1134.35 193.179M1074.62 602.514L1221.28 433.033M1221.28 433.033L1366.86 340.22M1221.28 433.033L1207.18 303.019M1366.86 340.22L1207.18 303.019M1134.35 193.179L1076.52 82.6879" stroke="white" stroke-opacity="0.3"/>
</svg>
