<svg width="53" height="53" viewBox="0 0 53 53" fill="none" xmlns="http://www.w3.org/2000/svg">
<path d="M4.21875 0.6875H12.6562C13.7751 0.6875 14.8482 1.13197 15.6394 1.92314C16.4305 2.71431 16.875 3.78737 16.875 4.90625V36.125H48.0938C49.2126 36.125 50.2857 36.5695 51.0769 37.3606C51.868 38.1518 52.3125 39.2249 52.3125 40.3438V48.7812C52.3125 49.9001 51.868 50.9732 51.0769 51.7644C50.2857 52.5555 49.2126 53 48.0938 53H4.21875C3.09987 53 2.02681 52.5555 1.23564 51.7644C0.444473 50.9732 0 49.9001 0 48.7812V4.90625C0 3.78737 0.444473 2.71431 1.23564 1.92314C2.02681 1.13197 3.09987 0.6875 4.21875 0.6875ZM1.6875 48.7812C1.6875 49.4526 1.95419 50.0964 2.42889 50.5711C2.90359 51.0458 3.54742 51.3125 4.21875 51.3125H48.0938C48.7651 51.3125 49.4089 51.0458 49.8836 50.5711C50.3583 50.0964 50.625 49.4526 50.625 48.7812V40.3438C50.625 39.6724 50.3583 39.0286 49.8836 38.5539C49.4089 38.0792 48.7651 37.8125 48.0938 37.8125H47.25V43.7188C47.25 43.9425 47.1611 44.1571 47.0029 44.3154C46.8446 44.4736 46.63 44.5625 46.4062 44.5625C46.1825 44.5625 45.9679 44.4736 45.8096 44.3154C45.6514 44.1571 45.5625 43.9425 45.5625 43.7188V37.8125H42.1875V40.3438C42.1875 40.5675 42.0986 40.7821 41.9404 40.9404C41.7821 41.0986 41.5675 41.1875 41.3438 41.1875C41.12 41.1875 40.9054 41.0986 40.7471 40.9404C40.5889 40.7821 40.5 40.5675 40.5 40.3438V37.8125H37.125V40.3438C37.125 40.5675 37.0361 40.7821 36.8779 40.9404C36.7196 41.0986 36.505 41.1875 36.2812 41.1875C36.0575 41.1875 35.8429 41.0986 35.6846 40.9404C35.5264 40.7821 35.4375 40.5675 35.4375 40.3438V37.8125H32.0625V43.7188C32.0625 43.9425 31.9736 44.1571 31.8154 44.3154C31.6571 44.4736 31.4425 44.5625 31.2188 44.5625C30.995 44.5625 30.7804 44.4736 30.6221 44.3154C30.4639 44.1571 30.375 43.9425 30.375 43.7188V37.8125H27V40.3438C27 40.5675 26.9111 40.7821 26.7529 40.9404C26.5946 41.0986 26.38 41.1875 26.1562 41.1875C25.9325 41.1875 25.7179 41.0986 25.5596 40.9404C25.4014 40.7821 25.3125 40.5675 25.3125 40.3438V37.8125H21.9375V40.3438C21.9375 40.5675 21.8486 40.7821 21.6904 40.9404C21.5321 41.0986 21.3175 41.1875 21.0938 41.1875C20.87 41.1875 20.6554 41.0986 20.4971 40.9404C20.3389 40.7821 20.25 40.5675 20.25 40.3438V37.8125H16.875V43.7188C16.875 43.9425 16.7861 44.1571 16.6279 44.3154C16.4696 44.4736 16.255 44.5625 16.0312 44.5625C15.8075 44.5625 15.5929 44.4736 15.4346 44.3154C15.2764 44.1571 15.1875 43.9425 15.1875 43.7188V37.8125H9.28125C9.05747 37.8125 8.84286 37.7236 8.68463 37.5654C8.52639 37.4071 8.4375 37.1925 8.4375 36.9688C8.4375 36.745 8.52639 36.5304 8.68463 36.3721C8.84286 36.2139 9.05747 36.125 9.28125 36.125H15.1875V32.75H12.6562C12.4325 32.75 12.2179 32.6611 12.0596 32.5029C11.9014 32.3446 11.8125 32.13 11.8125 31.9062C11.8125 31.6825 11.9014 31.4679 12.0596 31.3096C12.2179 31.1514 12.4325 31.0625 12.6562 31.0625H15.1875V27.6875H12.6562C12.4325 27.6875 12.2179 27.5986 12.0596 27.4404C11.9014 27.2821 11.8125 27.0675 11.8125 26.8438C11.8125 26.62 11.9014 26.4054 12.0596 26.2471C12.2179 26.0889 12.4325 26 12.6562 26H15.1875V22.625H9.28125C9.05747 22.625 8.84286 22.5361 8.68463 22.3779C8.52639 22.2196 8.4375 22.005 8.4375 21.7812C8.4375 21.5575 8.52639 21.3429 8.68463 21.1846C8.84286 21.0264 9.05747 20.9375 9.28125 20.9375H15.1875V17.5625H12.6562C12.4325 17.5625 12.2179 17.4736 12.0596 17.3154C11.9014 17.1571 11.8125 16.9425 11.8125 16.7188C11.8125 16.495 11.9014 16.2804 12.0596 16.1221C12.2179 15.9639 12.4325 15.875 12.6562 15.875H15.1875V12.5H12.6562C12.4325 12.5 12.2179 12.4111 12.0596 12.2529C11.9014 12.0946 11.8125 11.88 11.8125 11.6562C11.8125 11.4325 11.9014 11.2179 12.0596 11.0596C12.2179 10.9014 12.4325 10.8125 12.6562 10.8125H15.1875V7.4375H9.28125C9.05747 7.4375 8.84286 7.34861 8.68463 7.19037C8.52639 7.03214 8.4375 6.81753 8.4375 6.59375C8.4375 6.36997 8.52639 6.15536 8.68463 5.99713C8.84286 5.83889 9.05747 5.75 9.28125 5.75H15.1875V4.90625C15.1875 4.23492 14.9208 3.59109 14.4461 3.11639C13.9714 2.64168 13.3276 2.375 12.6562 2.375H4.21875C3.54742 2.375 2.90359 2.64168 2.42889 3.11639C1.95419 3.59109 1.6875 4.23492 1.6875 4.90625V48.7812Z" fill="#88DB05"/>
</svg>
