<svg width="506" height="813" viewBox="0 0 506 813" fill="none" xmlns="http://www.w3.org/2000/svg">
<path d="M425.29 131.095L425.29 131.094C419.075 93.9272 407.75 65.2553 391.602 44.996C375.45 24.7326 354.869 11.6314 330.049 5.56364C305.182 -0.406328 275.369 -0.527535 240.8 5.25002C240.799 5.25005 240.799 5.25007 240.799 5.2501L1.15168 45.4122L129.72 811.849L356.247 773.982L425.29 131.095ZM425.29 131.095L500.508 579.614L425.29 131.095ZM496.079 684.117C506.265 657.685 507.709 622.916 500.508 579.615L496.079 684.117ZM496.079 684.117C485.881 710.578 468.974 730.615 445.235 744.376M496.079 684.117L445.235 744.376M445.235 744.376C421.424 758.179 391.7 767.984 356.249 773.981L445.235 744.376Z" stroke="#88DB05" stroke-width="2"/>
</svg>
