<svg width="77" height="22" viewBox="0 0 77 22" fill="none" xmlns="http://www.w3.org/2000/svg">
<g clip-path="url(#clip0_30_691)">
<path d="M15.0391 11.5664C15.0391 10.6208 14.7568 9.69636 14.228 8.91009C13.6992 8.12381 12.9476 7.51099 12.0682 7.14911C11.1889 6.78723 10.2212 6.69254 9.28769 6.87703C8.35416 7.06151 7.49665 7.51688 6.82362 8.18555C6.15057 8.85422 5.69223 9.70616 5.50653 10.6336C5.32084 11.5611 5.41615 12.5225 5.7804 13.3961C6.14464 14.2698 6.76147 15.0165 7.55288 15.5419C8.34429 16.0672 9.27474 16.3477 10.2266 16.3477C11.5025 16.3462 12.7257 15.842 13.6279 14.9457C14.5301 14.0493 15.0376 12.834 15.0391 11.5664ZM7.82031 11.5664C7.82031 11.0936 7.96143 10.6314 8.22583 10.2382C8.49024 9.84511 8.86605 9.5387 9.30573 9.35776C9.74542 9.17682 10.2292 9.12948 10.696 9.22172C11.1628 9.31396 11.5915 9.54165 11.928 9.87598C12.2646 10.2103 12.4937 10.6363 12.5866 11.1C12.6794 11.5638 12.6318 12.0444 12.4496 12.4813C12.2675 12.9181 11.9591 13.2915 11.5634 13.5541C11.1677 13.8168 10.7025 13.957 10.2266 13.957C9.58859 13.9564 8.97695 13.7043 8.52584 13.2561C8.07473 12.8079 7.82099 12.2002 7.82031 11.5664Z" fill="#88DB05"/>
<path d="M18.4869 17.543L70.9844 17.543C72.5798 17.543 74.1099 16.9134 75.2381 15.7925C76.3662 14.6717 77 13.1515 77 11.5665C77 9.98138 76.3662 8.46122 75.2381 7.3404C74.1099 6.21957 72.5798 5.5899 70.9844 5.5899L18.4869 5.5899C17.5368 4.2832 16.2855 3.22154 14.8378 2.49375C13.3901 1.76595 11.7879 1.39317 10.1655 1.4066C7.55595 1.44952 5.05922 2.47099 3.17598 4.26618C1.29274 6.06136 0.162239 8.49752 0.0111766 11.0861C0.00355487 11.249 -0.000160655 11.4111 2.24438e-05 11.5726C-4.63145e-05 13.7167 0.683036 15.8058 1.95138 17.5405C3.21973 19.2752 5.00825 20.5665 7.06063 21.2293C9.11301 21.8921 11.3239 21.8925 13.3765 21.2303C15.4291 20.5681 17.218 19.2774 18.4869 17.5431L18.4869 17.543ZM4.56988 16.9314C3.83604 16.172 3.26631 15.2715 2.89574 14.2852C2.52518 13.299 2.3616 12.2478 2.41508 11.1964C2.53085 9.21735 3.39544 7.35493 4.83546 5.98265C6.27549 4.61037 8.18446 3.82971 10.1796 3.79722C11.5081 3.78705 12.817 4.11506 13.9818 4.74998C15.1465 5.38491 16.1281 6.3056 16.8332 7.42431C16.9417 7.59467 17.0919 7.735 17.2697 7.83225C17.4475 7.92949 17.6471 7.9805 17.8501 7.98052L70.9844 7.98053C71.9416 7.98053 72.8597 8.35833 73.5366 9.03083C74.2135 9.70332 74.5937 10.6154 74.5937 11.5665C74.5937 12.5175 74.2135 13.4296 73.5366 14.1021C72.8597 14.7746 71.9416 15.1524 70.9844 15.1524L17.8501 15.1524C17.6471 15.1524 17.4475 15.2034 17.2697 15.3007C17.0919 15.3979 16.9417 15.5383 16.8332 15.7086C16.2002 16.7082 15.3459 17.551 14.3354 18.1728C13.325 18.7947 12.185 19.1793 11.0023 19.2972C9.81958 19.4151 8.6254 19.2633 7.5107 18.8533C6.39599 18.4433 5.39018 17.786 4.56988 16.9314Z" fill="#88DB05"/>
<path d="M46.9219 11.5664C46.9219 11.8028 46.9924 12.0339 47.1246 12.2305C47.2568 12.4271 47.4447 12.5803 47.6646 12.6707C47.8844 12.7612 48.1263 12.7849 48.3597 12.7388C48.5931 12.6926 48.8075 12.5788 48.9757 12.4116C49.144 12.2445 49.2586 12.0315 49.305 11.7996C49.3514 11.5677 49.3276 11.3274 49.2365 11.109C49.1455 10.8906 48.9913 10.7039 48.7934 10.5725C48.5956 10.4412 48.363 10.3711 48.125 10.3711C47.967 10.3711 47.8105 10.402 47.6646 10.462C47.5186 10.5221 47.3859 10.6102 47.2742 10.7212C47.1625 10.8322 47.0739 10.9639 47.0134 11.109C46.953 11.254 46.9219 11.4094 46.9219 11.5664ZM51.1328 11.5664C51.1328 11.8028 51.2034 12.0339 51.3356 12.2305C51.4678 12.4271 51.6557 12.5803 51.8755 12.6707C52.0954 12.7612 52.3373 12.7849 52.5707 12.7388C52.804 12.6926 53.0184 12.5788 53.1867 12.4116C53.3549 12.2445 53.4695 12.0315 53.5159 11.7996C53.5624 11.5677 53.5385 11.3274 53.4475 11.109C53.3564 10.8906 53.2022 10.7039 53.0044 10.5725C52.8065 10.4412 52.5739 10.3711 52.3359 10.3711C52.1779 10.3711 52.0215 10.402 51.8755 10.462C51.7295 10.5221 51.5969 10.6102 51.4852 10.7212C51.3734 10.8322 51.2848 10.9639 51.2244 11.109C51.1639 11.254 51.1328 11.4094 51.1328 11.5664ZM42.7109 11.5664C42.7109 11.8028 42.7815 12.0339 42.9137 12.2305C43.0459 12.4271 43.2338 12.5803 43.4536 12.6707C43.6735 12.7612 43.9154 12.7849 44.1488 12.7388C44.3822 12.6926 44.5965 12.5788 44.7648 12.4116C44.9331 12.2445 45.0476 12.0315 45.0941 11.7996C45.1405 11.5677 45.1167 11.3274 45.0256 11.109C44.9345 10.8906 44.7803 10.7039 44.5825 10.5725C44.3846 10.4412 44.152 10.3711 43.9141 10.3711C43.7561 10.3711 43.5996 10.402 43.4536 10.462C43.3076 10.5221 43.175 10.6102 43.0633 10.7212C42.9516 10.8322 42.8629 10.9639 42.8025 11.109C42.742 11.254 42.7109 11.4094 42.7109 11.5664ZM25.8672 11.5664C25.8672 11.8028 25.9377 12.0339 26.07 12.2305C26.2022 12.4271 26.3901 12.5803 26.6099 12.6707C26.8297 12.7612 27.0716 12.7849 27.305 12.7387C27.5384 12.6926 27.7528 12.5788 27.9211 12.4116C28.0893 12.2445 28.2039 12.0315 28.2503 11.7996C28.2967 11.5677 28.2729 11.3274 28.1819 11.109C28.0908 10.8906 27.9366 10.7039 27.7387 10.5725C27.5409 10.4412 27.3083 10.3711 27.0703 10.3711C26.9123 10.3711 26.7559 10.402 26.6099 10.462C26.4639 10.5221 26.3313 10.6102 26.2195 10.7212C26.1078 10.8322 26.0192 10.9639 25.9587 11.109C25.8983 11.254 25.8672 11.4094 25.8672 11.5664ZM21.6562 11.5664C21.6562 11.8028 21.7268 12.0339 21.859 12.2305C21.9912 12.4271 22.1791 12.5803 22.399 12.6707C22.6188 12.7612 22.8607 12.7849 23.0941 12.7387C23.3275 12.6926 23.5419 12.5788 23.7101 12.4116C23.8784 12.2445 23.993 12.0315 24.0394 11.7996C24.0858 11.5677 24.062 11.3274 23.9709 11.109C23.8799 10.8906 23.7256 10.7039 23.5278 10.5725C23.3299 10.4412 23.0973 10.3711 22.8594 10.3711C22.7014 10.3711 22.5449 10.402 22.3989 10.462C22.253 10.5221 22.1203 10.6102 22.0086 10.7212C21.8969 10.8322 21.8083 10.9639 21.7478 11.109C21.6873 11.254 21.6562 11.4094 21.6562 11.5664ZM17.4453 11.5664C17.4453 11.8028 17.5159 12.0339 17.6481 12.2305C17.7803 12.4271 17.9682 12.5803 18.188 12.6707C18.4079 12.7612 18.6498 12.7849 18.8832 12.7387C19.1165 12.6926 19.3309 12.5788 19.4992 12.4116C19.6674 12.2445 19.782 12.0315 19.8284 11.7996C19.8749 11.5677 19.851 11.3274 19.76 11.109C19.6689 10.8906 19.5147 10.7039 19.3169 10.5725C19.119 10.4412 18.8864 10.3711 18.6484 10.3711C18.4904 10.3711 18.334 10.402 18.188 10.462C18.042 10.5221 17.9094 10.6102 17.7977 10.7212C17.6859 10.8322 17.5973 10.9639 17.5369 11.109C17.4764 11.254 17.4453 11.4094 17.4453 11.5664ZM30.0781 11.5664C30.0781 11.8028 30.1487 12.0339 30.2809 12.2305C30.4131 12.4271 30.601 12.5803 30.8208 12.6707C31.0407 12.7612 31.2826 12.7849 31.516 12.7387C31.7494 12.6926 31.9637 12.5788 32.132 12.4116C32.3002 12.2445 32.4148 12.0315 32.4613 11.7996C32.5077 11.5677 32.4839 11.3274 32.3928 11.109C32.3017 10.8906 32.1475 10.7039 31.9497 10.5725C31.7518 10.4412 31.5192 10.3711 31.2812 10.3711C31.1232 10.3711 30.9668 10.402 30.8208 10.462C30.6748 10.5221 30.5422 10.6102 30.4305 10.7212C30.3188 10.8322 30.2301 10.9639 30.1697 11.109C30.1092 11.254 30.0781 11.4094 30.0781 11.5664ZM34.2891 11.5664C34.2891 11.8028 34.3596 12.0339 34.4918 12.2305C34.624 12.4271 34.8119 12.5803 35.0318 12.6707C35.2516 12.7612 35.4935 12.7849 35.7269 12.7387C35.9603 12.6926 36.1747 12.5788 36.3429 12.4116C36.5112 12.2445 36.6258 12.0315 36.6722 11.7996C36.7186 11.5677 36.6948 11.3274 36.6037 11.109C36.5127 10.8906 36.3585 10.7039 36.1606 10.5725C35.9628 10.4412 35.7301 10.3711 35.4922 10.3711C35.3342 10.3711 35.1777 10.402 35.0317 10.462C34.8858 10.5221 34.7531 10.6102 34.6414 10.7212C34.5297 10.8322 34.4411 10.9639 34.3806 11.109C34.3202 11.254 34.289 11.4094 34.2891 11.5664ZM38.5 11.5664C38.5 11.8028 38.5706 12.0339 38.7028 12.2305C38.835 12.4271 39.0229 12.5803 39.2427 12.6707C39.4626 12.7612 39.7045 12.7849 39.9378 12.7388C40.1712 12.6926 40.3856 12.5788 40.5539 12.4116C40.7221 12.2445 40.8367 12.0315 40.8831 11.7996C40.9296 11.5677 40.9057 11.3274 40.8147 11.109C40.7236 10.8906 40.5694 10.7039 40.3715 10.5725C40.1737 10.4412 39.9411 10.3711 39.7031 10.3711C39.5451 10.3711 39.3887 10.402 39.2427 10.462C39.0967 10.5221 38.9641 10.6102 38.8523 10.7212C38.7406 10.8322 38.652 10.9639 38.5915 11.109C38.5311 11.254 38.5 11.4094 38.5 11.5664Z" fill="#88DB05"/>
</g>
<defs>
<clipPath id="clip0_30_691">
<rect width="22" height="77" fill="white" transform="translate(77) rotate(90)"/>
</clipPath>
</defs>
</svg>
