<svg width="29" height="19" viewBox="0 0 29 19" fill="none" xmlns="http://www.w3.org/2000/svg">
<path fill-rule="evenodd" clip-rule="evenodd" d="M29 9.00029C29 8.73507 28.8946 8.48072 28.7071 8.29318C28.5196 8.10564 28.2652 8.00029 28 8.00029H4.414L10.708 1.70829C10.8958 1.52051 11.0013 1.26584 11.0013 1.00029C11.0013 0.734735 10.8958 0.48006 10.708 0.292286C10.5202 0.104513 10.2656 -0.000976556 10 -0.000976562C9.73445 -0.000976569 9.47977 0.104513 9.292 0.292286L1.292 8.29229C1.19887 8.38518 1.12499 8.49553 1.07458 8.61702C1.02416 8.73851 0.998213 8.86875 0.998213 9.00029C0.998213 9.13182 1.02416 9.26206 1.07458 9.38355C1.12499 9.50504 1.19887 9.61539 1.292 9.70829L9.292 17.7083C9.47977 17.8961 9.73445 18.0015 10 18.0015C10.2656 18.0015 10.5202 17.8961 10.708 17.7083C10.8958 17.5205 11.0013 17.2658 11.0013 17.0003C11.0013 16.7347 10.8958 16.4801 10.708 16.2923L4.414 10.0003H28C28.2652 10.0003 28.5196 9.89493 28.7071 9.70739C28.8946 9.51986 29 9.2655 29 9.00029Z" fill="white"/>
</svg>
