<svg width="29" height="19" viewBox="0 0 29 19" fill="none" xmlns="http://www.w3.org/2000/svg">
<path fill-rule="evenodd" clip-rule="evenodd" d="M0 9.00029C0 8.73507 0.105357 8.48072 0.292893 8.29318C0.48043 8.10564 0.734784 8.00029 1 8.00029H24.586L18.292 1.70829C18.1042 1.52051 17.9987 1.26584 17.9987 1.00029C17.9987 0.734735 18.1042 0.48006 18.292 0.292286C18.4798 0.104513 18.7344 -0.000976556 19 -0.000976562C19.2656 -0.000976569 19.5202 0.104513 19.708 0.292286L27.708 8.29229C27.8011 8.38518 27.875 8.49553 27.9254 8.61702C27.9758 8.73851 28.0018 8.86875 28.0018 9.00029C28.0018 9.13182 27.9758 9.26206 27.9254 9.38355C27.875 9.50504 27.8011 9.61539 27.708 9.70829L19.708 17.7083C19.5202 17.8961 19.2656 18.0015 19 18.0015C18.7344 18.0015 18.4798 17.8961 18.292 17.7083C18.1042 17.5205 17.9987 17.2658 17.9987 17.0003C17.9987 16.7347 18.1042 16.4801 18.292 16.2923L24.586 10.0003H1C0.734784 10.0003 0.48043 9.89493 0.292893 9.70739C0.105357 9.51986 0 9.2655 0 9.00029Z" fill="#88DB05"/>
</svg>
