<svg width="1920" height="1500" viewBox="0 0 1920 1500" fill="none" xmlns="http://www.w3.org/2000/svg">
<path opacity="0.2" d="M-516.121 1531.04L-97.5381 926.712M-516.121 1531.04L-321.027 1853.34M-516.121 1531.04L-163.401 1462.09M-97.5381 926.712L233.669 685.991M-97.5381 926.712L-163.401 1462.09M-97.5381 926.712L456.179 1799.38M233.669 685.991L663.665 536.967M233.669 685.991L456.179 1799.38M233.669 685.991L576.089 1031.23M663.665 536.967L1115.87 252.297M663.665 536.967L576.089 1031.23M663.665 536.967L931.867 862.425M663.665 536.967L958.246 643.553M663.665 536.967L1432.41 559.903M1115.87 252.297L1787.64 0.74794M1115.87 252.297L1432.41 559.903M1115.87 252.297L1642 230M1787.64 0.74794L2345.89 266.551M1787.64 0.74794L1833.27 435.223M1787.64 0.74794L1642 230M2345.89 266.551L2426.14 615.668M2345.89 266.551L2056.79 630.096M2345.89 266.551L1833.27 435.223M2506.4 964.786L1954.45 1356.77M2506.4 964.786L2164.49 903.724M2506.4 964.786L2426.14 615.668M1954.45 1356.77L1384.56 1117.61M1954.45 1356.77L1564.39 642.215M1954.45 1356.77L1879.64 852.853M1954.45 1356.77L1945.93 1358.73M1223.97 1524.75L456.179 1799.38M1223.97 1524.75L1217.36 1522.16M1223.97 1524.75L1945.93 1358.73M456.179 1799.38L-321.027 1853.34M456.179 1799.38L538.548 1255.67M-321.027 1853.34L196.421 1390L-163.401 1462.09M576.089 1031.23L538.548 1255.67M538.548 1255.67L1075.76 1042L931.867 862.425M538.548 1255.67L931.867 862.425M538.548 1255.67L1217.36 1522.16M1217.36 1522.16L958.246 643.553M1217.36 1522.16L1384.56 1117.61M958.246 643.553L1384.56 1117.61M958.246 643.553L1412.12 796.396M1432.41 559.903L1412.12 796.396M1432.41 559.903L1564.39 642.215M1432.41 559.903L1879.64 852.853M1432.41 559.903L1642 230M1384.56 1117.61L1412.12 796.396M1384.56 1117.61L1564.39 642.215M1879.64 852.853L2164.49 903.724M1879.64 852.853L2056.79 630.096M1879.64 852.853L1642 230M1879.64 852.853L1833.27 435.223M1945.93 1358.73L2164.49 903.724M2164.49 903.724L2426.14 615.668M2164.49 903.724L2056.79 630.096M2426.14 615.668L2056.79 630.096M1833.27 435.223L1642 230" stroke="#EFEFEF"/>
</svg>
