<svg width="32" height="32" viewBox="0 0 32 32" fill="none" xmlns="http://www.w3.org/2000/svg">
<circle cx="16" cy="16" r="16" fill="#88DB05"/>
<path d="M15.4988 12.6154C13.7068 12.6154 12.2444 14.1363 12.2444 16C12.2444 17.8636 13.7068 19.3845 15.4988 19.3845C17.2908 19.3845 18.7532 17.8636 18.7532 16C18.7532 14.1363 17.2908 12.6154 15.4988 12.6154ZM25.2595 16C25.2595 14.5984 25.2717 13.2095 25.1961 11.8105C25.1204 10.1855 24.7639 8.74333 23.6213 7.55505C22.4763 6.36423 21.092 5.99607 19.5295 5.91736C18.1819 5.83865 16.8464 5.85134 15.5012 5.85134C14.1536 5.85134 12.8181 5.83865 11.4729 5.91736C9.9104 5.99607 8.52368 6.36677 7.3811 7.55505C6.23608 8.74587 5.88207 10.1855 5.80639 11.8105C5.73071 13.2121 5.74291 14.6009 5.74291 16C5.74291 17.399 5.73071 18.7904 5.80639 20.1894C5.88207 21.8144 6.23852 23.2566 7.3811 24.4449C8.52612 25.6357 9.9104 26.0039 11.4729 26.0826C12.8206 26.1613 14.156 26.1486 15.5012 26.1486C16.8489 26.1486 18.1843 26.1613 19.5295 26.0826C21.092 26.0039 22.4788 25.6332 23.6213 24.4449C24.7664 23.2541 25.1204 21.8144 25.1961 20.1894C25.2742 18.7904 25.2595 17.4015 25.2595 16ZM15.4988 21.2076C12.7278 21.2076 10.4915 18.8818 10.4915 16C10.4915 13.1181 12.7278 10.7924 15.4988 10.7924C18.2698 10.7924 20.5061 13.1181 20.5061 16C20.5061 18.8818 18.2698 21.2076 15.4988 21.2076ZM20.7112 11.7953C20.0642 11.7953 19.5418 11.2519 19.5418 10.5791C19.5418 9.90622 20.0642 9.36286 20.7112 9.36286C21.3582 9.36286 21.8806 9.90622 21.8806 10.5791C21.8808 10.7388 21.8507 10.8971 21.792 11.0447C21.7333 11.1924 21.6472 11.3265 21.5385 11.4395C21.4299 11.5525 21.3009 11.6421 21.1589 11.7031C21.017 11.7642 20.8648 11.7955 20.7112 11.7953Z" fill="#0C0C0C"/>
</svg>
